<svg xmlns="http://www.w3.org/2000/svg" viewBox="0 0 100 100">
  <defs>
    <linearGradient id="skyGrad" x1="0%" y1="0%" x2="0%" y2="100%">
      <stop offset="0%" style="stop-color:#4A90E2;stop-opacity:1" />
      <stop offset="100%" style="stop-color:#357ABD;stop-opacity:1" />
    </linearGradient>
  </defs>
  <rect width="100" height="100" fill="url(#skyGrad)" rx="15"/>
  <g transform="translate(50, 50)">
    <ellipse cx="0" cy="5" rx="35" ry="8" fill="#2C3E50" opacity="0.3"/>
    <path d="M -25 0 L -20 -5 L 20 -5 L 30 0 L 25 5 L -20 5 Z" fill="#E74C3C"/>
    <path d="M -25 0 L -20 -5 L -15 -3 L -18 2 Z" fill="#C0392B"/>
    <rect x="-8" y="-8" width="16" height="8" fill="#3498DB" opacity="0.6" rx="1"/>
    <ellipse cx="0" cy="-2" rx="3" ry="2" fill="#34495E"/>
    <path d="M -35 -2 L -25 0 L -25 2 L -35 0 Z" fill="#95A5A6"/>
    <path d="M 25 -2 L 35 0 L 35 2 L 25 0 Z" fill="#95A5A6"/>
    <path d="M 28 0 L 38 -8 L 40 -7 L 30 1 Z" fill="#F39C12"/>
    <circle cx="32" cy="-3" r="2" fill="#E67E22"/>
  </g>
</svg>

